HIERARCHY
ROOT Hips
{
  OFFSET 57.8838 95.319 338.509
  CHANNELS 6 Xposition Yposition Zposition Zrotation Xrotation Yrotation
  JOINT LeftUpLeg
  {
    OFFSET 8.64259 1.95398 -2.38835
    CHANNELS 3 Zrotation Xrotation Yrotation
    JOINT LeftLeg
    {
      OFFSET 43.7702 0 0
      CHANNELS 3 Zrotation Xrotation Yrotation
      JOINT LeftFoot
      {
        OFFSET 40.6238 0 0
        CHANNELS 3 Zrotation Xrotation Yrotation
        JOINT LeftToeBase
        {
          OFFSET 12.7242 0 0
          CHANNELS 3 Zrotation Xrotation Yrotation
          End Site
          {
            OFFSET 0 0 0
          }
        }
      }
    }
  }
  JOINT RightUpLeg
  {
    OFFSET -8.2249 1.95398 -2.59336
    CHANNELS 3 Zrotation Xrotation Yrotation
    JOINT RightLeg
    {
      OFFSET 43.5653 0 0
      CHANNELS 3 Zrotation Xrotation Yrotation
      JOINT RightFoot
      {
        OFFSET 40.6238 0 0
        CHANNELS 3 Zrotation Xrotation Yrotation
        JOINT RightToeBase
        {
          OFFSET 12.7242 0 0
          CHANNELS 3 Zrotation Xrotation Yrotation
          End Site
          {
            OFFSET 0 0 0
          }
        }
      }
    }
  }
  JOINT Spine
  {
    OFFSET 0.165834 0.87714 6.61349
    CHANNELS 3 Zrotation Xrotation Yrotation
    JOINT Spine1
    {
      OFFSET 7.38963 1.71661e-005 0
      CHANNELS 3 Zrotation Xrotation Yrotation
      JOINT Spine2
      {
        OFFSET 11.9445 1.14441e-005 0
        CHANNELS 3 Zrotation Xrotation Yrotation
        JOINT Spine3
        {
          OFFSET 14.7254 4.19617e-005 0
          CHANNELS 3 Zrotation Xrotation Yrotation
          JOINT Spine4
          {
            OFFSET 10.9679 0 0
            CHANNELS 3 Zrotation Xrotation Yrotation
            JOINT RightShoulder
            {
              OFFSET 2.46616 -1.6653 3.69651
              CHANNELS 3 Zrotation Xrotation Yrotation
              JOINT RightArm
              {
                OFFSET 13.0012 0 0
                CHANNELS 3 Zrotation Xrotation Yrotation
                JOINT RightForeArm
                {
                  OFFSET 28.7848 1.62311e-005 0
                  CHANNELS 3 Zrotation Xrotation Yrotation
                  JOINT RightHand
                  {
                    OFFSET 26.5688 1.62095e-005 0
                    CHANNELS 3 Zrotation Xrotation Yrotation
                    End Site
                    {
                      OFFSET 0 0 0
                    }
                  }
                }
              }
            }
            JOINT LeftShoulder
            {
              OFFSET 2.38034 -1.29275 -3.7523
              CHANNELS 3 Zrotation Xrotation Yrotation
              JOINT LeftArm
              {
                OFFSET 16.3182 6.07031e-005 0
                CHANNELS 3 Zrotation Xrotation Yrotation
                JOINT LeftForeArm
                {
                  OFFSET 27.0901 0 0
                  CHANNELS 3 Zrotation Xrotation Yrotation
                  JOINT LeftHand
                  {
                    OFFSET 24.5451 1.51738e-005 0
                    CHANNELS 3 Zrotation Xrotation Yrotation
                    End Site
                    {
                      OFFSET 0 0 0
                    }
                  }
                }
              }
            }
            JOINT Neck
            {
              OFFSET 5.0226 -0.0266342 0
              CHANNELS 3 Zrotation Xrotation Yrotation
              JOINT Head
              {
                OFFSET 6.69364 2.86102e-005 0
                CHANNELS 3 Zrotation Xrotation Yrotation
                End Site
                {
                  OFFSET 0 0 0
                }
              }
            }
          }
        }
      }
    }
  }
}
MOTION
Frames:	7
Frame Time:	0.0416667
-74.5287 25.7385 55.1389 -5.48525 2.32105 -86.5615 -167.099 23.8233 101.133 -41.6206 -8.32576 -0.544501 56.9827 -4.71008 -7.82035 60.5157 18.682 18.5657 169.88 41.9791 67.6423 -68.6471 -3.52592 -1.12272 80.1817 -5.0491 30.5967 45.0351 -30.8543 -20.9853 -0.343271 7.67687 -91.0495 11.5048 -1.17354 -1.96915 -0.167038 -1.25907 -1.91561 -22.6914 -0.527643 -2.23067 -2.67871 -0.527647 -2.23068 96.7818 -50.7515 -90.2821 27.0107 -28.9 9.13328 -84.5501 33.4239 -80.9034 -57.7559 -14.3889 21.0725 -71.9769 -7.99536 113.736 -52.8696 -40.8091 -111.563 26.5825 3.36826 -70.4987 3.65735 -0.108659 -4.71287 60.7723 6.45009 20.0547 -13.7048 -5.2073 -24.5191 
-72.3461 24.9527 56.0549 -4.01219 6.14673 -86.9023 -170.491 13.1057 100.168 -22.0272 -11.2436 0.199963 60.1871 0.139421 -10.024 69.098 30.3753 34.8802 171.822 47.7303 66.0437 -71.9799 -2.48561 -1.56511 80.635 -4.92892 30.7468 43.8671 -30.75 -24.5579 -0.312905 7.40272 -91.1953 12.0511 -1.18653 -2.2546 0.378907 -1.28459 -2.20023 -22.1416 -0.454311 -2.50679 -2.12897 -0.454312 -2.50682 95.8691 -49.4755 -91.844 20.6354 -32.5881 4.57564 -85.2418 38.3598 -81.0612 -62.9755 -14.1084 17.9337 -73.2124 -7.41783 110.683 -49.6637 -53.7766 -105.371 25.8566 3.79055 -66.91 4.36229 -0.137071 -5.18865 75.0728 5.09092 11.1403 -23.7119 -1.24225 -16.6527 
-70.1298 21.7338 57.7218 -1.3072 13.6303 -89.3646 -172.822 4.16953 96.7741 -8.69078 -17.9733 2.1236 66.4587 7.27807 -13.9097 74.769 32.0557 28.5737 174.412 53.9494 63.6878 -75.2648 -4.20294 -1.6378 80.4934 -5.30163 29.5707 44.7814 -31.3112 -22.5332 0.0261792 6.85312 -91.2654 13.1546 -0.557276 -2.46192 1.48154 -0.665041 -2.43505 -21.0348 0.208144 -2.51561 -1.02211 0.208163 -2.5156 93.6529 -49.9892 -95.2038 19.2679 -33.0548 5.91271 -85.9114 45.1636 -82.2171 -64.6417 -13.281 15.9445 -73.85 -2.07057 109.976 -41.0851 -62.0591 -89.2711 22.9803 3.62472 -62.3352 5.31946 -0.226833 -6.37167 87.9787 2.10309 2.58309 -35.872 2.99271 -10.2746 
-68.3746 19.3025 60.6097 -4.52779 15.965 -91.8221 -175.088 -1.75502 93.4113 -9.95875 -14.421 2.54113 70.6357 10.7141 -16.4357 80.8528 32.7441 21.5595 175.078 55.8206 56.5941 -79.485 -5.04046 -1.79398 80.9364 -5.805 29.2673 45.1227 -30.4814 -20.08 0.265269 7.03128 -91.3969 12.8012 -0.141631 -2.77553 1.12735 -0.263614 -2.76663 -21.385 0.698753 -2.68991 -1.37239 0.698754 -2.68993 94.6086 -46.4631 -94.2694 13.7181 -29.8079 0.711969 -83.3358 46.4951 -87.3753 -56.7385 -13.9606 20.7339 -74.0198 -8.44221 107.764 -30.4746 -62.2872 -82.348 22.3948 4.61422 -57.1208 8.07438 -0.362363 -7.3428 75.0963 4.47734 2.40055 -29.2122 4.49168 -9.1557 
-67.7572 16.6499 62.6266 -6.88525 22.8104 -95.1003 -177.163 -6.48719 88.5049 -12.9918 -13.4315 2.53002 73.4213 10.0288 -20.1213 81.0457 29.9531 16.1301 175.176 59.6091 53.4981 -87.7711 -8.95734 -1.65202 79.0896 -6.10936 25.5436 45.9582 -31.1793 -18.6715 0.50673 7.06544 -91.6061 12.7348 0.23886 -3.23813 1.05981 0.0961932 -3.24551 -21.4462 1.20055 -3.01704 -1.43351 1.20056 -3.01705 96.761 -39.7184 -91.6078 4.87562 -34.8037 -8.59122 -82.3482 42.7552 -85.0347 -57.1788 -13.6144 19.8867 -73.5992 -8.54416 108.978 -28.1157 -58.9784 -72.2193 23.2537 8.12826 -59.2704 14.288 -0.289591 -5.84233 46.4718 6.9946 0.13491 -7.30066 6.80071 -3.84123 
-68.1571 15.6615 63.1523 -7.58156 23.2931 -98.0694 -177.783 -7.92159 86.3576 -14.4566 -14.3308 2.32277 73.4855 6.92989 -24.8264 80.4546 28.4695 13.9783 166.415 57.2329 56.3444 -93.5606 -12.7557 -0.872929 76.8197 -4.65246 24.4254 45.4681 -29.6598 -17.5188 0.834386 7.13573 -91.626 12.6028 0.882345 -3.35155 0.927737 0.734072 -3.38708 -21.5819 1.84842 -2.93203 -1.56922 1.84841 -2.93205 98.8118 -36.2818 -88.3109 4.22448 -35.5388 -11.0034 -79.2095 44.5383 -88.6802 -56.5019 -13.9389 20.8177 -75.2063 -7.33046 104.381 -33.8448 -59.2074 -58.3302 21.7116 -0.601589 -82.0203 18.3844 -0.0773847 -4.28153 34.391 9.74678 8.19938 2.82902 5.33024 -5.62417 
-67.7111 15.3426 62.0946 -7.12501 20.3174 -101.034 -178.661 -5.79456 84.7477 -18.1954 -19.7264 2.17726 73.1608 5.24895 -26.057 81.5044 27.7507 11.3394 157.613 47.8055 57.3558 -89.9375 -13.673 0.785945 77.3292 -5.23611 25.4752 45.5955 -28.8114 -15.5347 1.00863 7.15233 -91.2991 12.5786 1.3845 -2.75703 0.905225 1.26187 -2.81523 -21.6192 2.14891 -2.21382 -1.60653 2.14891 -2.21383 99.4023 -36.4392 -87.1845 9.71208 -38.1594 -5.07077 -87.1787 49.0574 -83.8271 -52.9299 -13.0498 21.0769 -74.9858 -17.7176 103.818 -29.3004 -55.0863 -28.8844 22.7806 -1.9171 -120.351 18.5587 -0.436681 -6.23674 39.4909 10.9282 15.4069 -1.0555 2.81536 -9.23649 
